<?xml version="1.0"?>
<svg version="1.1" xmlns="http://www.w3.org/2000/svg" width="400" height="200" style=""><path fill="#000000" d="M17.29345703125,86.05126953125q0-0.6015625,0.432373046875-0.996337890625t1.01513671875-0.620361328125t1.2783203125-0.30078125t1.221923828125-0.0751953125q1.09033203125,0,2.312255859375,0.30078125t1.823486328125,1.31591796875q1.09033203125,1.84228515625,1.597900390625,4.380126953125t0.958740234375,4.868896484375q0.6767578125,3.2333984375,1.7294921875,6.767578125t2.199462890625,7.199951171875t2.349853515625,7.199951171875t2.10546875,6.6171875q1.09033203125-4.54931640625,2.011474609375-9.32421875t1.76708984375-9.5498046875t1.76708984375-9.5498046875t2.011474609375-9.36181640625q0.2255859375-1.09033203125,0.33837890625-2.74462890625t0.469970703125-3.19580078125t1.033935546875-2.650634765625t2.06787109375-1.109130859375q1.46630859375,0,1.973876953125,0.808349609375t0.507568359375,2.349853515625q-0.3759765625,4.24853515625-1.221923828125,8.421875t-1.560302734375,8.3466796875q-1.01513671875,5.15087890625-2.199462890625,10.320556640625t-2.21826171875,10.358154296875t-1.76708984375,10.395751953125t-0.883544921875,10.433349609375q0.0751953125,0.2255859375,0.2255859375,0.5263671875t0.150390625,0.451171875q0,0.451171875-0.41357421875,0.845947265625t-1.033935546875,0.6767578125t-1.353515625,0.432373046875t-1.372314453125,0.150390625q-0.6015625,0-1.372314453125-0.0751953125t-1.54150390625-0.281982421875t-1.353515625-0.545166015625t-0.733154296875-0.86474609375q-0.6015625-1.76708984375-1.109130859375-3.440185546875t-0.958740234375-3.440185546875q-2.14306640625-7.70751953125-4.492919921875-15.133056640625t-4.342529296875-15.095458984375q-0.93994140625-3.458984375-1.409912109375-6.786376953125t-1.522705078125-6.560791015625q0.150390625,0.30078125,0.150390625,0.48876953125q-0.150390625-0.5263671875-0.30078125-0.996337890625t-0.33837890625-1.033935546875q0,0.150390625,0.03759765625,0.18798828125t0.03759765625,0.11279296875q0-0.0751953125-0.03759765625-0.11279296875t-0.03759765625-0.11279296875z M57.961713867187,123.57373046875q0-3.458984375,0.808349609375-6.786376953125t1.372314453125-6.635986328125q0.150390625-0.86474609375,1.184326171875-1.071533203125t1.748291015625-0.206787109375q1.24072265625,0,1.99267578125,0.3759765625q0.30078125,0.150390625,0.56396484375,0.33837890625t0.26318359375,0.48876953125q0,3.2333984375-0.770751953125,6.31640625t-0.770751953125,6.5419921875q0,1.16552734375,0.169189453125,2.199462890625t0.319580078125,2.049072265625l0.2255859375,1.09033203125q0,0.30078125,0.03759765625,0.5263671875t0.11279296875,0.5263671875q0,0.6767578125-0.958740234375,0.921142578125t-1.673095703125,0.244384765625q-1.09033203125,0-2.011474609375-0.432373046875t-1.447509765625-1.485107421875l-0.5263671875-1.09033203125q-0.451171875-0.86474609375-0.451171875-1.936279296875t-0.18798828125-1.973876953125z M60.367963867187,100.93994140625l0-0.71435546875q0-1.76708984375,0.883544921875-3.158203125t2.650634765625-1.39111328125q0.2255859375,0,0.432373046875,0.03759765625t0.432373046875,0.03759765625q0.451171875,0.0751953125,1.184326171875,0.357177734375t0.733154296875,0.883544921875l0,0.0751953125q-0.150390625,0.30078125-0.18798828125,0.620361328125t-0.18798828125,0.545166015625l0.0751953125-0.0751953125q-0.451171875,1.16552734375-0.733154296875,1.8798828125t-0.620361328125,1.146728515625t-0.845947265625,0.620361328125t-1.447509765625,0.18798828125q-0.150390625,0-0.5263671875-0.03759765625t-0.808349609375-0.150390625t-0.733154296875-0.30078125t-0.30078125-0.56396484375z M74.379482421875,123.72412109375q0-2.70703125,0.695556640625-5.432861328125t2.161865234375-4.8876953125t3.740966796875-3.515380859375t5.357666015625-1.353515625q1.31591796875,0,2.89501953125,0.319580078125t2.913818359375,1.01513671875t2.255859375,1.8046875t0.921142578125,2.725830078125q0,1.01513671875-0.5263671875,1.353515625t-1.39111328125,0.33837890625l-0.26318359375-0.3759765625t-0.733154296875-0.958740234375t-0.996337890625-1.24072265625t-1.01513671875-1.109130859375q-1.54150390625-1.54150390625-2.89501953125-1.654296875l-0.30078125,0q-1.1279296875,0-2.10546875,0.6767578125q-1.09033203125,0.8271484375-1.936279296875,2.3310546875t-1.409912109375,3.19580078125t-0.883544921875,3.42138671875t-0.319580078125,2.857421875q0,1.54150390625,0.357177734375,3.515380859375t1.203125,3.740966796875t2.14306640625,2.97021484375t3.327392578125,1.203125q1.84228515625,0,3.34619140625-0.90234375t2.876220703125-2.011474609375t2.688232421875-1.99267578125t2.70703125-0.883544921875q0.6015625,0,1.221923828125,0.150390625t0.620361328125,0.78955078125l0,0.2255859375q-0.6767578125,1.76708984375-2.29345703125,3.12060546875t-3.628173828125,2.349853515625t-4.17333984375,1.485107421875t-3.853759765625,0.48876953125q-3.158203125,0-5.545654296875-1.033935546875t-3.966552734375-2.838623046875t-2.387451171875-4.342529296875t-0.808349609375-5.545654296875z M105.64832519531,100.6015625q0-0.5263671875,1.1279296875-0.90234375t2.556640625-0.620361328125t2.763427734375-0.357177734375t1.823486328125-0.18798828125q0-1.01513671875,0.0751953125-2.049072265625t0.41357421875-1.84228515625t1.071533203125-1.297119140625t2.049072265625-0.48876953125q1.09033203125,0,1.654296875,0.26318359375t1.203125,1.09033203125q0.150390625,0.451171875,0.150390625,0.86474609375l0,1.259521484375t-0.0751953125,1.297119140625q1.39111328125-0.150390625,2.763427734375-0.357177734375t2.763427734375-0.206787109375q1.01513671875,0,1.39111328125,0.03759765625t0.751953125,0.90234375q0.30078125,0.86474609375-0.733154296875,1.31591796875t-2.4814453125,0.6767578125t-2.876220703125,0.33837890625t-1.7294921875,0.11279296875q-0.451171875,6.466796875-0.921142578125,12.82080078125t-0.469970703125,12.89599609375q0,2.9326171875,0.18798828125,6.05322265625t1.052734375,5.90283203125q0.2255859375,0.86474609375,0.751953125,1.61669921875t0.5263671875,1.61669921875q0,0.5263671875-0.41357421875,0.8271484375t-0.996337890625,0.507568359375t-1.16552734375,0.244384765625t-0.958740234375,0.03759765625q-2.36865234375,0-3.609375-1.76708984375t-1.785888671875-4.229736328125t-0.582763671875-5.056884765625t-0.03759765625-4.2109375q0-3.30859375,0.131591796875-6.767578125t0.319580078125-6.8427734375t0.5263671875-6.6171875t0.78955078125-6.015625q-1.31591796875,0.150390625-2.575439453125,0.33837890625t-2.575439453125,0.18798828125q-0.30078125,0-0.808349609375-0.03759765625t-0.958740234375-0.18798828125t-0.770751953125-0.41357421875t-0.319580078125-0.751953125z M133.646171875,125.1904296875q0-2.14306640625,0.545166015625-4.417724609375t1.7294921875-4.09814453125t2.989013671875-2.97021484375t4.361328125-1.146728515625q1.91748046875,0,4.041748046875,0.657958984375t3.891357421875,1.8798828125t2.876220703125,2.989013671875t1.109130859375,3.94775390625q0,2.6318359375-0.958740234375,5.00048828125t-2.688232421875,4.229736328125t-4.041748046875,2.9326171875t-5.019287109375,1.071533203125q-2.21826171875,0-3.87255859375-0.808349609375t-2.763427734375-2.161865234375t-1.654296875-3.19580078125t-0.545166015625-3.91015625z M139.17302734375,125.115234375q0,0.6767578125,0.206787109375,1.99267578125t0.620361328125,2.575439453125t1.071533203125,2.1806640625t1.597900390625,0.845947265625q1.99267578125-0.2255859375,3.289794921875-1.297119140625t2.10546875-2.613037109375t1.1279296875-3.34619140625t0.319580078125-3.42138671875q0-2.06787109375-0.808349609375-3.458984375t-2.650634765625-2.255859375q0,0.0751953125,0.0751953125,0.0751953125t0.0751953125-0.0751953125l-0.93994140625-0.2255859375q-0.3759765625-0.150390625-0.921142578125-0.33837890625t-1.071533203125-0.8271484375q-1.46630859375,0.5263671875-2.274658203125,1.353515625t-1.221923828125,2.011474609375t-0.507568359375,2.838623046875t-0.093994140625,3.9853515625z M162.13278808594,113.94873046875q0-1.54150390625,0.545166015625-2.59423828125t2.312255859375-1.052734375q0.6767578125,0,1.69189453125,0.206787109375t1.16552734375,1.033935546875q0.3759765625,2.21826171875,0.41357421875,4.8125t0.26318359375,4.8876953125q0.86474609375-1.69189453125,2.21826171875-3.64697265625t3.0830078125-3.609375t3.759765625-2.74462890625t4.1357421875-1.09033203125q0.150390625,0,0.56396484375,0.11279296875t0.770751953125,0.319580078125t0.432373046875,0.469970703125t-0.41357421875,0.48876953125q-0.150390625,0.451171875-0.63916015625,0.545166015625t-0.86474609375,0.093994140625q-0.2255859375,0-0.71435546875-0.18798828125q-2.7822265625,1.46630859375-4.7373046875,3.9853515625t-3.19580078125,5.583251953125t-1.8046875,6.466796875t-0.56396484375,6.635986328125q0,1.61669921875-0.733154296875,1.955078125t-2.349853515625,0.33837890625q-0.86474609375,0-1.823486328125-0.18798828125t-1.334716796875-1.203125q-0.6767578125-2.14306640625-1.109130859375-4.92529296875t-0.657958984375-5.733642578125t-0.319580078125-5.808837890625t-0.093994140625-5.15087890625z"/><path fill="#" d="M208.27740722656,137.63525390625q0-0.2255859375,0.150390625-1.597900390625t0.394775390625-3.34619140625t0.545166015625-4.24853515625t0.5263671875-4.304931640625t0.394775390625-3.57177734375t0.169189453125-2.06787109375q-0.30078125-0.150390625-0.733154296875-0.432373046875t-0.432373046875-0.657958984375q0-0.5263671875,0.507568359375-0.845947265625t0.883544921875-0.469970703125q0.150390625-1.91748046875,0.3759765625-5.3388671875t0.695556640625-7.387939453125t1.31591796875-8.0458984375t2.237060546875-7.40673828125t3.34619140625-5.432861328125t4.8125-2.10546875t4.7373046875,1.8046875t3.064208984375,4.69970703125t1.8046875,6.42919921875t0.93994140625,7.03076171875t0.394775390625,6.5419921875t0.150390625,4.8876953125q0.0751953125,1.16552734375,0.56396484375,1.560302734375t1.071533203125,0.545166015625t1.052734375,0.33837890625t0.469970703125,0.93994140625q0,0.86474609375-1.052734375,1.203125t-1.654296875,0.41357421875q0.3759765625,4.69970703125,1.033935546875,9.2490234375t1.748291015625,9.173828125q0.150390625,0.86474609375,0.41357421875,1.748291015625t0.26318359375,1.710693359375q0,0.6015625-0.41357421875,0.996337890625t-1.071533203125,0.620361328125t-1.31591796875,0.30078125t-1.109130859375,0.0751953125q-1.69189453125,0-2.857421875-0.63916015625t-1.54150390625-2.44384765625q-1.01513671875-4.85009765625-1.99267578125-10.18896484375q-0.8271484375-4.62451171875-0.8271484375-8.98583984375q0-0.6767578125,0.03759765625-1.353515625q-3.158203125,0-6.35400390625,0.150390625t-6.12841796875,1.1279296875q-0.0751953125,1.01513671875-0.3759765625,3.8349609375t-0.6767578125,6.05322265625t-0.770751953125,6.184814453125t-0.469970703125,4.192138671875q-0.0751953125,0.5263671875-0.770751953125,0.996337890625t-1.50390625,0.507568359375t-1.4287109375-0.507568359375t-0.620361328125-1.936279296875z M215.30816894531,114.85107421875q2.9326171875-0.6767578125,5.884033203125-0.78955078125t5.959228515625-0.26318359375q-0.150390625-0.93994140625-0.0751953125-1.936279296875t0.0751953125-2.011474609375q0-2.21826171875-0.11279296875-5.15087890625t-0.33837890625-5.9404296875t-0.582763671875-5.921630859375t-0.808349609375-5.1884765625t-0.958740234375-3.628173828125t-1.109130859375-1.353515625q-1.16552734375,0.0751953125-2.199462890625,2.011474609375t-1.8798828125,4.92529296875t-1.54150390625,6.6923828125t-1.16552734375,7.237548828125t-0.770751953125,6.57958984375t-0.3759765625,4.7373046875z M244.62193359375,100.6015625q0-0.5263671875,1.1279296875-0.90234375t2.556640625-0.620361328125t2.763427734375-0.357177734375t1.823486328125-0.18798828125q0-1.01513671875,0.0751953125-2.049072265625t0.41357421875-1.84228515625t1.071533203125-1.297119140625t2.049072265625-0.48876953125q1.09033203125,0,1.654296875,0.26318359375t1.203125,1.09033203125q0.150390625,0.451171875,0.150390625,0.86474609375l0,1.259521484375t-0.0751953125,1.297119140625q1.39111328125-0.150390625,2.763427734375-0.357177734375t2.763427734375-0.206787109375q1.01513671875,0,1.39111328125,0.03759765625t0.751953125,0.90234375q0.30078125,0.86474609375-0.733154296875,1.31591796875t-2.4814453125,0.6767578125t-2.876220703125,0.33837890625t-1.7294921875,0.11279296875q-0.451171875,6.466796875-0.921142578125,12.82080078125t-0.469970703125,12.89599609375q0,2.9326171875,0.18798828125,6.05322265625t1.052734375,5.90283203125q0.2255859375,0.86474609375,0.751953125,1.61669921875t0.5263671875,1.61669921875q0,0.5263671875-0.41357421875,0.8271484375t-0.996337890625,0.507568359375t-1.16552734375,0.244384765625t-0.958740234375,0.03759765625q-2.36865234375,0-3.609375-1.76708984375t-1.785888671875-4.229736328125t-0.582763671875-5.056884765625t-0.03759765625-4.2109375q0-3.30859375,0.131591796875-6.767578125t0.319580078125-6.8427734375t0.5263671875-6.6171875t0.78955078125-6.015625q-1.31591796875,0.150390625-2.575439453125,0.33837890625t-2.575439453125,0.18798828125q-0.30078125,0-0.808349609375-0.03759765625t-0.958740234375-0.18798828125t-0.770751953125-0.41357421875t-0.319580078125-0.751953125z M273.37173339844,124.47607421875q0-2.556640625,0.695556640625-4.92529296875t2.086669921875-4.229736328125t3.477783203125-2.97021484375t4.831298828125-1.109130859375q1.69189453125,0,3.740966796875,0.507568359375t3.853759765625,1.50390625t3.0078125,2.537841796875t1.203125,3.5341796875q0,0.93994140625-0.319580078125,1.4287109375t-1.297119140625,0.48876953125l-0.41357421875-0.0751953125q1.09033203125,2.9326171875,1.8798828125,6.015625t1.54150390625,6.166015625q0.30078125,0.6015625,0.451171875,1.071533203125t0.150390625,0.921142578125q0,0.6015625-0.33837890625,0.996337890625t-0.883544921875,0.582763671875t-1.1279296875,0.26318359375t-1.033935546875,0.0751953125q-1.61669921875,0-2.425048828125-0.56396484375t-1.16552734375-1.54150390625t-0.432373046875-2.199462890625t-0.30078125-2.462646484375q-0.451171875,1.46630859375-1.184326171875,2.857421875t-1.7294921875,2.500244140625t-2.349853515625,1.76708984375t-3.04541015625,0.657958984375q-2.4814453125,0-4.17333984375-1.4287109375t-2.725830078125-3.515380859375t-1.50390625-4.455322265625t-0.469970703125-4.39892578125z M278.71060058594,123.94970703125q0,1.39111328125,0.18798828125,2.9326171875t0.620361328125,3.04541015625t1.109130859375,2.838623046875t1.69189453125,2.349853515625q1.84228515625-1.99267578125,2.725830078125-4.85009765625t1.5791015625-5.508056640625t1.5791015625-4.54931640625t2.725830078125-1.898681640625q1.16552734375,0,1.955078125,0.41357421875q-0.3759765625-0.93994140625-1.24072265625-1.823486328125t-1.936279296875-1.61669921875t-2.21826171875-1.203125t-2.161865234375-0.469970703125q-0.30078125,0-0.695556640625,0.093994140625t-0.620361328125,0.018798828125q-1.54150390625,0.451171875-2.537841796875,1.560302734375t-1.61669921875,2.613037109375t-0.883544921875,3.0830078125t-0.26318359375,2.97021484375z M305.95649414062,114.77587890625q0-1.54150390625,0.90234375-2.650634765625t2.199462890625-1.8046875t2.838623046875-1.033935546875t2.857421875-0.33837890625q1.01513671875,0,2.70703125,0.30078125t3.30859375,0.90234375t2.801025390625,1.5791015625t1.184326171875,2.29345703125q0,0.6015625-0.451171875,1.071533203125t-0.93994140625,0.469970703125q-1.01513671875,0-1.84228515625-0.657958984375t-1.710693359375-1.39111328125t-1.936279296875-1.39111328125t-2.36865234375-0.657958984375t-2.387451171875,0.845947265625t-1.071533203125,2.237060546875q0,2.29345703125,1.61669921875,4.492919921875t3.552978515625,4.62451171875t3.552978515625,5.094482421875t1.61669921875,5.90283203125q0,1.39111328125-0.582763671875,2.349853515625t-1.54150390625,1.560302734375t-2.161865234375,0.921142578125t-2.3310546875,0.319580078125q-1.24072265625,0-2.89501953125-0.582763671875t-3.12060546875-1.54150390625t-2.462646484375-2.237060546875t-0.996337890625-2.66943359375q0-0.6767578125,0.958740234375-0.86474609375t1.409912109375-0.18798828125q0.2255859375,0,0.695556640625,0.150390625t0.921142578125,0.33837890625t0.808349609375,0.41357421875t0.281982421875,0.48876953125q0.3759765625,0.451171875,1.146728515625,1.334716796875t1.54150390625,1.4287109375t1.353515625,0.394775390625t0.582763671875-1.69189453125q0-2.9326171875-1.5791015625-5.395263671875t-3.440185546875-4.8125t-3.440185546875-4.662109375t-1.5791015625-4.944091796875z M332.45043457031,123.57373046875q0-3.458984375,0.808349609375-6.786376953125t1.372314453125-6.635986328125q0.150390625-0.86474609375,1.184326171875-1.071533203125t1.748291015625-0.206787109375q1.24072265625,0,1.99267578125,0.3759765625q0.30078125,0.150390625,0.56396484375,0.33837890625t0.26318359375,0.48876953125q0,3.2333984375-0.770751953125,6.31640625t-0.770751953125,6.5419921875q0,1.16552734375,0.169189453125,2.199462890625t0.319580078125,2.049072265625l0.2255859375,1.09033203125q0,0.30078125,0.03759765625,0.5263671875t0.11279296875,0.5263671875q0,0.6767578125-0.958740234375,0.921142578125t-1.673095703125,0.244384765625q-1.09033203125,0-2.011474609375-0.432373046875t-1.447509765625-1.485107421875l-0.5263671875-1.09033203125q-0.451171875-0.86474609375-0.451171875-1.936279296875t-0.18798828125-1.973876953125z M334.85668457031,100.93994140625l0-0.71435546875q0-1.76708984375,0.883544921875-3.158203125t2.650634765625-1.39111328125q0.2255859375,0,0.432373046875,0.03759765625t0.432373046875,0.03759765625q0.451171875,0.0751953125,1.184326171875,0.357177734375t0.733154296875,0.883544921875l0,0.0751953125q-0.150390625,0.30078125-0.18798828125,0.620361328125t-0.18798828125,0.545166015625l0.0751953125-0.0751953125q-0.451171875,1.16552734375-0.733154296875,1.8798828125t-0.620361328125,1.146728515625t-0.845947265625,0.620361328125t-1.447509765625,0.18798828125q-0.150390625,0-0.5263671875-0.03759765625t-0.808349609375-0.150390625t-0.733154296875-0.30078125t-0.30078125-0.56396484375z M348.868203125,126.017578125q0-2.6318359375,0.582763671875-6.20361328125t1.973876953125-6.767578125t3.665771484375-5.432861328125t5.733642578125-2.237060546875q3.2333984375,0,4.85009765625,1.861083984375t1.61669921875,5.019287109375q0,2.06787109375-0.770751953125,4.530517578125t-2.199462890625,4.662109375t-3.3837890625,3.665771484375t-4.361328125,1.46630859375l-0.9775390625-0.0751953125q0,1.01513671875,0.30078125,2.725830078125t0.883544921875,3.402587890625t1.50390625,2.97021484375t2.237060546875,1.2783203125q1.91748046875,0,3.6845703125-1.54150390625t3.34619140625-3.42138671875t2.9326171875-3.42138671875t2.4814453125-1.54150390625q0.6015625,0,1.24072265625,0.18798828125t0.71435546875,1.052734375q0,0.5263671875-0.281982421875,0.86474609375t-0.507568359375,0.751953125q-1.16552734375,1.99267578125-2.537841796875,3.79736328125t-3.101806640625,3.27099609375t-3.778564453125,2.312255859375t-4.530517578125,0.845947265625q-3.2333984375,0-5.37646484375-1.146728515625t-3.458984375-3.0830078125t-1.898681640625-4.47412109375t-0.582763671875-5.320068359375z M355.59818359375,123.16015625l1.052734375,0.93994140625q0.751953125,0.6767578125,1.50390625,0.30078125t1.353515625-1.372314453125t1.109130859375-2.462646484375t0.90234375-3.0078125t0.582763671875-3.0078125t0.18798828125-2.44384765625l0-1.2783203125t-0.11279296875-1.353515625t-0.394775390625-1.071533203125t-0.883544921875-0.545166015625q-0.18798828125-0.03759765625-0.33837890625-0.03759765625q-1.2783203125,0-2.1806640625,1.61669921875q-0.9775390625,1.8046875-1.5791015625,4.380126953125t-0.86474609375,5.282470703125t-0.33837890625,4.060546875z"/></svg>
